<svg xmlns="http://www.w3.org/2000/svg" viewBox="0 0 512 512" id="monster">
  <circle cx="256" cy="256" r="256" fill="#7cc8fb"></circle>
  <path fill="#4f4f74" d="M444.73 312.19c.18 3.91.27 7.83.27 11.79 0 55.41-17.64 106.08-46.8 144.92a254.35 254.35 0 0 1-111.58 41.28A258 258 0 0 1 256 512a254.83 254.83 0 0 1-154.4-51.8C76.16 422.63 61 375.34 61 324q0-7.12.4-14.13A83 83 0 0 1 117.24 154a82.06 82.06 0 0 1 9.4 3.24l4-4 1.1-1c.41-.4.83-.79 1.25-1.17q2.52-2.34 5.11-4.57l1.52-1.29 1.67-1.4 1.3-1.06 1.22-1c.57-.46 1.14-.92 1.72-1.36.74-.58 1.47-1.15 2.22-1.71s1.38-1 2.08-1.55c1.67-1.24 3.37-2.44 5.09-3.62.63-.44 1.27-.87 1.91-1.29l2.12-1.4c1.43-.93 2.87-1.83 4.32-2.72a176.41 176.41 0 0 1 38.19-17.54c-20.93-14.34-55.66-27.66-94.89-.12 0 0-12.63-60.19 103.93-48.34 0 0-13.74-46.89 48.57-51.7 0 0-11.23 25 11.78 46 0 0 61-59.61 116.88 5.35 0 0-50-11.28-68.27 19.37 0 0 49.29-12.79 61.42 22.18 0 0-38.09-9.69-70.91 9.17 26.68 9.56 50.86 25.65 71.15 46.65a83 83 0 1 1 63.56 153.12Z"></path>
  <path fill="#3e436d" d="M286.62 510.18A258 258 0 0 1 256 512a254.83 254.83 0 0 1-154.4-51.8C76.16 422.63 61 375.34 61 324q0-7.12.4-14.13A83 83 0 0 1 117.24 154a82.06 82.06 0 0 1 9.4 3.24l4-4 1.1-1c.41-.4.83-.79 1.25-1.17q2.52-2.34 5.11-4.57l1.52-1.29 1.67-1.4 1.3-1.06 1.22-1c.57-.46 1.14-.92 1.72-1.36.74-.58 1.47-1.15 2.22-1.71s1.38-1 2.08-1.55c1.67-1.24 3.37-2.44 5.09-3.62.63-.44 1.27-.87 1.91-1.29l2.12-1.4c1.43-.93 2.87-1.83 4.32-2.72-14.99 100.58-9.17 257.96 123.35 382.08Z"></path>
  <circle cx="397.79" cy="399.7" r="16.28" fill="#5f5f87"></circle>
  <circle cx="411.55" cy="368.7" r="11.53" fill="#5f5f87"></circle>
  <circle cx="95.72" cy="234.26" r="59.28" fill="#fff"></circle>
  <circle cx="95.72" cy="237.54" r="34.98" fill="#3586cb"></circle>
  <circle cx="95.4" cy="237.54" r="26.21" fill="#27273d"></circle>
  <circle cx="111.01" cy="219.5" r="8.17" fill="#fff"></circle>
  <circle cx="95.4" cy="237.54" r="9.86" fill="#fff"></circle>
  <circle cx="418.46" cy="234.26" r="59.28" fill="#fff"></circle>
  <circle cx="418.46" cy="237.54" r="34.98" fill="#3586cb"></circle>
  <circle cx="418.14" cy="237.54" r="26.21" fill="#27273d"></circle>
  <circle cx="433.74" cy="219.5" r="8.17" fill="#fff"></circle>
  <circle cx="418.14" cy="237.54" r="9.86" fill="#fff"></circle>
  <path fill="#27273d" d="M337 258.56v5a80.5 80.5 0 1 1-161 0v-5Z"></path>
  <path fill="#db1b1b" d="M300.56 330.94a80.54 80.54 0 0 1-88.12 0 80.49 80.49 0 0 1 88.12 0Z"></path>
  <path fill="#fff" d="M191.76 275.58a6 6 0 0 0 8.85 0l15.64-16.89-40.25-.13zm40.24 0a6 6 0 0 0 8.85 0l15.64-16.89-40.25-.13zm40.26 0a6 6 0 0 0 8.85 0l15.64-16.89-40.25-.13zm24.49-17.02 15.76 17a6 6 0 0 0 8.85 0L337 258.69z"></path>
</svg>
