<svg xmlns="http://www.w3.org/2000/svg" viewBox="0 0 512 512" id="monster">
  <circle cx="256" cy="256" r="256" fill="#f7bb38"></circle>
  <path fill="#db1b1b" d="M106 184c0 12-12.48 25.26-9.92 36.5 2.63 11.6 19.69 18.12 24.74 28.59 5.13 10.64-.34 28 7 37.17s25.51 7.69 34.7 15 11.7 25.38 22.35 30.51c10.46 5 26.17-4.16 37.78-1.52C233.84 332.83 244 348 256 348s22.16-15.17 33.39-17.73c11.61-2.64 27.32 6.57 37.79 1.52 10.64-5.13 13.2-23.21 22.34-30.51s27.37-5.84 34.7-15 1.83-26.53 7-37.17c5.05-10.47 22.11-17 24.74-28.59C418.48 209.26 406 196 406 184s12.48-25.26 9.92-36.5c-2.63-11.6-19.69-18.12-24.74-28.59-5.13-10.64.34-28-7-37.17s-25.51-7.69-34.7-15-11.7-25.38-22.35-30.51c-10.46-5.05-26.17 4.16-37.78 1.52C278.16 35.17 268 20 256 20s-22.16 15.17-33.39 17.73c-11.61 2.64-27.32-6.57-37.79-1.52-10.64 5.13-13.2 23.21-22.34 30.51s-27.37 5.84-34.7 15-1.83 26.53-7 37.17c-5 10.47-22.11 17-24.74 28.59C93.52 158.74 106 172 106 184Z"></path>
  <path fill="#c61c1c" d="M276.61 330.27A22.54 22.54 0 0 1 283 333c-8.82 5.15-17.3 15-27 15-12 0-22.16-15.17-33.39-17.73-11.61-2.64-27.32 6.57-37.78 1.52-10.65-5.13-13.21-23.21-22.35-30.51s-27.37-5.84-34.7-15-1.83-26.53-7-37.17c-5-10.47-22.11-17-24.74-28.59C93.52 209.26 106 196 106 184s-12.48-25.26-9.92-36.5c2.63-11.6 19.69-18.12 24.74-28.59 5.13-10.64-.34-28 7-37.17s25.51-7.69 34.7-15 11.7-25.38 22.34-30.51c10.47-5.05 26.18 4.16 37.79 1.52C233.84 35.17 244 20 256 20c9.7 0 18.18 9.89 27 15a22.54 22.54 0 0 1-6.39 2.69c-11.61 2.64-27.32-6.57-37.79-1.52-10.64 5.13-13.2 23.21-22.34 30.51s-27.37 5.84-34.7 15-1.83 26.53-7 37.17c-5 10.47-22.11 17-24.74 28.59C147.52 158.74 160 172 160 184s-12.48 25.26-9.92 36.5c2.63 11.6 19.69 18.12 24.74 28.59 5.13 10.64-.34 28 7 37.17s25.51 7.69 34.7 15 11.7 25.38 22.35 30.51c10.42 5.07 26.13-4.14 37.74-1.5Z"></path>
  <path fill="#00b564" d="M333 160.87v339.34a256.61 256.61 0 0 1-154 0V160.87a20.63 20.63 0 0 1 20.63-20.62h112.74A20.62 20.62 0 0 1 333 160.87Z"></path>
  <path fill="#04a055" d="M231 140.25a20.62 20.62 0 0 0-20.62 20.62v347.07a255.16 255.16 0 0 1-31.38-7.73V160.87a20.63 20.63 0 0 1 20.63-20.62Z"></path>
  <path fill="#fff" d="M351 279a95 95 0 1 1-18.17-55.89A95 95 0 0 1 351 279Z"></path>
  <path fill="#04a055" d="M333 334.65V368a95 95 0 0 1-154 0v-33.35a95 95 0 0 0 154 0Z"></path>
  <path fill="#4acc97" d="M332.83 223.11H179.17a95 95 0 0 1 153.66 0Z"></path>
  <path fill="#e2e2e2" d="M276.67 371.74a95 95 0 1 1 0-185.48 95 95 0 0 0 0 185.48Z"></path>
  <path fill="#38c487" d="M276.67 186.26a95 95 0 0 0-56.17 36.85h-41.33a95.13 95.13 0 0 1 97.5-36.85Z"></path>
  <circle cx="368.51" cy="127.65" r="16.28" fill="#e83434"></circle>
  <circle cx="344.53" cy="103.66" r="11.53" fill="#e83434"></circle>
  <circle cx="256" cy="295.67" r="57" fill="#27273d"></circle>
  <circle cx="256" cy="295.67" r="16.67" fill="#fff"></circle>
  <circle cx="283" cy="269.33" r="9.67" fill="#fff"></circle>
  <rect width="86" height="49.17" x="213" y="414" fill="#27273d" rx="15"></rect>
  <path fill="#fff" d="M256 414h-19.67l16.21 20.26a4.43 4.43 0 0 0 6.92 0L275.67 414Z"></path>
  <path fill="#db1b1b" d="M272 463.17a16 16 0 0 0-32 0Z"></path>
</svg>
