<svg xmlns="http://www.w3.org/2000/svg" viewBox="0 0 512 512" id="monster">
  <circle cx="256" cy="256" r="256" fill="#fc4581"></circle>
  <path fill="#9e4830" d="M200.35 115.86s1.12-25-41.88-37.49a4.2 4.2 0 0 1-.87-7.72c10.49-5.78 30.61-12.58 56.52-.91 0 0 10.53-24.11 52.86-41.79a4.19 4.19 0 0 1 5.72 4.63c-1.76 9.56-4.15 26-1.85 35.28 0 0 43-49.72 88.14-13.17a4.2 4.2 0 0 1-3.27 7.42c-9.38-1.39-20.61.51-27.48 14 0 0 67.47 5.68 48.46 11.06-7.95 2.25-66.94 3.38-83.58 30.95Z"></path>
  <path fill="#f6c752" d="m447.08 162.28-.52 19.89-6.63 251.9a255.89 255.89 0 0 1-362.78 5.1l-6.6-250.84-.69-26.05a58 58 0 0 1 3.5-21.48c.48-1.33 1-2.64 1.6-3.92s1.21-2.55 1.88-3.79c.44-.82.91-1.63 1.39-2.42a58.32 58.32 0 0 1 8.6-11l1-1c.67-.65 1.36-1.27 2.06-1.88 1-.91 2.14-1.79 3.26-2.63a51.873 51.873 0 0 1 3.45-2.39c.79-.51 1.58-1 2.39-1.46l1.23-.69c.82-.45 1.66-.88 2.5-1.28a53.17 53.17 0 0 1 3.7-1.63 57.6 57.6 0 0 1 16.49-3.9h.15q2.41-.21 4.89-.21h261.38a58.05 58.05 0 0 1 57.75 59.63Z"></path>
  <path fill="#ddaf4a" d="M175.91 102.65a57.81 57.81 0 0 0-33.51 10.63h-.06a58 58 0 0 0-24.5 49l.32 12.13.73 27.7 2.51 95.64 4.7 178.86a256.81 256.81 0 0 1-48.95-37.46l-6.6-250.84-.69-26.05a58 58 0 0 1 3.5-21.48c.49-1.33 1-2.64 1.6-3.92s1.21-2.55 1.88-3.79c.45-.82.91-1.63 1.39-2.42a58.32 58.32 0 0 1 8.6-11l1-1c.67-.64 1.36-1.27 2.06-1.88 1-.91 2.14-1.79 3.26-2.63.74-.55 1.5-1.09 2.27-1.62.38-.26.78-.52 1.18-.77.78-.51 1.58-1 2.39-1.46l1.23-.69c.82-.44 1.66-.87 2.5-1.28a53.17 53.17 0 0 1 3.7-1.63 57.6 57.6 0 0 1 16.49-3.9h.15q2.41-.21 4.89-.21Z"></path>
  <path fill="#f55b4b" d="M136.13 109.75s-66.38-31-83.88-75.65a5.91 5.91 0 0 0-11.12.43C30.8 67 18.89 137.51 80 198.52a9.55 9.55 0 0 0 16.28-7l-.5-19.85 28.05 3.44a9.54 9.54 0 0 0 10.46-11.61l-5.94-25.78 16.08-7.3a8.76 8.76 0 0 0 .68-15.6zm239.78 0s66.39-31 83.89-75.65a5.91 5.91 0 0 1 11.12.43c10.32 32.51 22.24 103-38.89 164a9.55 9.55 0 0 1-16.29-7l.51-19.85-28.05 3.44a9.54 9.54 0 0 1-10.46-11.61l5.93-25.78-16.08-7.3a8.76 8.76 0 0 1-.68-15.6z"></path>
  <path fill="#db4f45" d="m416 174.58 23.71-2.91-.49 19.06q-3.49 3.92-7.37 7.79a9.55 9.55 0 0 1-16.28-7zm58.83-124.77c-24.33 36.08-75.49 60-75.49 60l-9 5.06a8.76 8.76 0 0 0 .68 15.6l16.08 7.3-5.93 25.78a9.53 9.53 0 0 0 3.33 9.59l-16.51 2a9.54 9.54 0 0 1-10.45-11.61l5.93-25.78-16.08-7.3a8.76 8.76 0 0 1-.68-15.6l9-5.06s66.38-31 83.88-75.66a5.91 5.91 0 0 1 11.12.43c1.41 4.44 2.84 9.53 4.12 15.25zM96.76 174.59l-23.71-2.92.49 19.06q3.49 3.92 7.37 7.79a9.55 9.55 0 0 0 16.28-7zM36.86 49.81c24.32 36.08 75.49 60 75.49 60l9 5.06a8.76 8.76 0 0 1-.67 15.6l-16.08 7.3 5.93 25.78a9.52 9.52 0 0 1-3.33 9.59l16.51 2a9.54 9.54 0 0 0 10.45-11.61l-5.93-25.78 16.08-7.3a8.76 8.76 0 0 0 .68-15.6l-9-5.06S69.6 78.79 52.1 34.1a5.92 5.92 0 0 0-11.1.43c-1.43 4.47-2.86 9.57-4.14 15.28z"></path>
  <circle cx="172.33" cy="248.58" r="70.81" fill="#fff"></circle>
  <circle cx="172.33" cy="252.5" r="41.79" fill="#3586cb"></circle>
  <circle cx="171.95" cy="252.5" r="31.31" fill="#27273d"></circle>
  <circle cx="190.59" cy="230.95" r="9.76" fill="#fff"></circle>
  <circle cx="171.95" cy="252.5" r="11.78" fill="#fff"></circle>
  <circle cx="343.99" cy="248.58" r="70.81" fill="#fff"></circle>
  <circle cx="343.99" cy="252.5" r="41.79" fill="#3586cb"></circle>
  <circle cx="343.61" cy="252.5" r="31.31" fill="#27273d"></circle>
  <circle cx="362.25" cy="230.95" r="9.76" fill="#fff"></circle>
  <circle cx="343.61" cy="252.5" r="11.78" fill="#fff"></circle>
  <path fill="#27273d" d="M359.65 419a33.43 33.43 0 0 1-3.3 10.19c-4.35 8.55-12.36 15.8-23 21.37-9.57 5-21.3 8.68-34.43 10.7a176.73 176.73 0 0 1-53.07-.3c-3.8-.57-7.55-1.25-11.22-2A173.33 173.33 0 0 1 198.17 447a121.69 121.69 0 0 1-27.62-17.11c-15.17-12.77-23.28-27.86-21-42.71 1.08-7.09 7.63-13.91 17.81-20.14 8.13-5 18.57-9.58 30.38-13.63 6.06-2.08 12.48-4 19.13-5.79a370 370 0 0 1 45-8.91c8.94-1.2 17.82-2.07 26.38-2.54 14.86-.82 28.74-.48 40.32 1.27a91.17 91.17 0 0 1 10.39 2.13c44.8 11.99 25.2 49.57 20.69 79.43Z"></path>
  <path fill="#fff" d="M197.7 353.45v30.81a15.19 15.19 0 0 1-30.38 0v-17.18c8.13-4.98 18.57-9.58 30.38-13.63zm64.15-14.7v23.85c0 8.39-10.08 15.19-22.51 15.19s-22.51-6.8-22.51-15.19v-14.94a370 370 0 0 1 45.02-8.91zm77.09.86-16 27.62a10.79 10.79 0 0 1-18.92-.46l-15.78-30.56c14.86-.82 28.74-.48 40.32 1.27a91.17 91.17 0 0 1 10.38 2.13z"></path>
  <circle cx="414.8" cy="390.35" r="18.32" fill="#f6d372"></circle>
  <circle cx="414.8" cy="352.19" r="12.98" fill="#f6d372"></circle>
  <path fill="#db1b1b" d="M356.35 429.13c-4.35 8.55-12.36 15.8-23 21.37-9.57 5-21.3 8.68-34.43 10.7a176.73 176.73 0 0 1-53.07-.3c-3.8-.58-7.55-1.25-11.22-2a173.91 173.91 0 0 1-36.46-11.9 122 122 0 0 1-27.62-17.11c19.69-12.78 54.21-21.25 93.49-21.25 38.52-.02 72.45 8.12 92.31 20.49Z"></path>
  <path fill="#fff" d="M234.6 458.92A173.33 173.33 0 0 1 198.17 447l12.94-26.68c3.46-7.15 10.86-6.37 13 1.36zm98.72-8.36c-9.57 5-21.3 8.68-34.43 10.7l-1-30.41c-.26-7.94 6.65-10.69 12.18-4.85z"></path>
</svg>
