<svg xmlns="http://www.w3.org/2000/svg" viewBox="0 0 512 512" id="monster">
  <circle cx="256" cy="256" r="256" fill="#fc4581"></circle>
  <path fill="#27273d" d="M371 465.05a52.27 52.27 0 0 1-5 22.17 256.49 256.49 0 0 1-220 0 52.27 52.27 0 0 1-5-22.17 54.36 54.36 0 0 1 9.59-30.31 81.08 81.08 0 0 1 20-20.44c19.94-14.55 48.33-24 80.06-24.92 1.76-.05 3.53-.08 5.31-.08s3.59 0 5.37.09c44.84 1.35 83 19.62 100 45.35a54.36 54.36 0 0 1 9.67 30.31Z"></path>
  <path fill="#32314b" d="M476.82 240.49c-1.49-30.33-23.83-54.86-36.8-66.62a4.35 4.35 0 0 1 2.93-7.56h8.12a4.33 4.33 0 0 0 3.9-6.25c-12.14-23.74-44.66-30.25-62.73-32a4.34 4.34 0 0 1-1.56-8.19A165.18 165.18 0 0 1 413 111a4.36 4.36 0 0 0 1.81-7.12c-25.13-27.18-63.27-28.69-81.36-27.65a4.34 4.34 0 0 1-3.64-7.07l7.49-9.26a4.35 4.35 0 0 0-2.23-6.9c-34.36-9.87-50.18-4.67-56.42-.89a4.33 4.33 0 0 1-6-1.57l-12.89-22.39a4.35 4.35 0 0 0-7.52 0l-12.92 22.36a4.33 4.33 0 0 1-6 1.57c-6.24-3.78-22.06-9-56.42.89a4.35 4.35 0 0 0-2.18 6.92l7.49 9.26a4.34 4.34 0 0 1-3.64 7.07c-18.09-1-56.23.47-81.36 27.65a4.36 4.36 0 0 0 1.84 7.13 165.18 165.18 0 0 1 22.27 8.86 4.34 4.34 0 0 1-1.56 8.19c-18.07 1.77-50.59 8.28-62.73 32a4.33 4.33 0 0 0 3.9 6.25h8.12a4.35 4.35 0 0 1 2.95 7.57c-13 11.76-35.31 36.29-36.8 66.62a4.36 4.36 0 0 0 6.36 4.07c7.05-3.65 18.81-8.9 29-9.39a4.35 4.35 0 0 1 3.69 7c-10.34 13.63-33.66 48.68-31.15 83.48a4.34 4.34 0 0 0 6 3.65l8.66-3.71a4.34 4.34 0 0 1 6 4.48c-1 8.26.62 22.81 15.08 43.31a4.34 4.34 0 0 0 5.49 1.36l5.8-2.9a4.34 4.34 0 0 1 6.08 2.56c4 12.46 18.65 45.61 66.14 66a4.35 4.35 0 0 0 6-3.27 4.34 4.34 0 0 1 8-1.55C185.57 450.42 207.76 474 256 474s70.43-23.55 79.62-38.36a4.34 4.34 0 0 1 8 1.55 4.35 4.35 0 0 0 6 3.27c47.49-20.42 62.17-53.57 66.14-66a4.34 4.34 0 0 1 6.08-2.56l5.8 2.9a4.34 4.34 0 0 0 5.49-1.36c14.46-20.5 16.06-35.05 15.08-43.31a4.34 4.34 0 0 1 6-4.48l8.66 3.71a4.34 4.34 0 0 0 6-3.65c2.51-34.8-20.81-69.85-31.12-83.52a4.35 4.35 0 0 1 3.69-7c10.18.49 21.94 5.74 29 9.39a4.36 4.36 0 0 0 6.38-4.09Z"></path>
  <path fill="#27273d" d="M280.24 471.74A125.75 125.75 0 0 1 256 474c-48.24 0-70.43-23.55-79.62-38.36a4.33 4.33 0 0 0-8 1.55 4.35 4.35 0 0 1-6 3.27c-47.49-20.42-62.17-53.57-66.14-66a4.34 4.34 0 0 0-6.08-2.56l-5.8 2.9a4.34 4.34 0 0 1-5.49-1.37c-14.46-20.49-16.06-35-15.08-43.3a4.34 4.34 0 0 0-6-4.48l-8.66 3.71a4.34 4.34 0 0 1-6-3.65c-2.51-34.8 20.81-69.86 31.12-83.52a4.35 4.35 0 0 0-3.69-7c-10.18.48-21.94 5.74-29 9.39a4.36 4.36 0 0 1-6.36-4.07c1.47-30.35 23.8-54.88 36.8-66.64a4.35 4.35 0 0 0-2.93-7.56h-8.14a4.33 4.33 0 0 1-3.9-6.25c12.14-23.74 44.66-30.25 62.73-32a4.34 4.34 0 0 0 1.56-8.19A165.18 165.18 0 0 0 99.05 111a4.36 4.36 0 0 1-1.81-7.12c25.13-27.18 63.27-28.7 81.36-27.65a4.34 4.34 0 0 0 3.64-7.07l-7.49-9.26a4.35 4.35 0 0 1 2.18-6.9c31.89-9.16 47.81-5.34 54.92-1.73-2.07.52-4.22 1.09-6.44 1.73a4.35 4.35 0 0 0-2.18 6.92l7.5 9.26a4.35 4.35 0 0 1-3.65 7.07c-18.09-1-56.23.47-81.36 27.65a4.36 4.36 0 0 0 1.81 7.12 165.18 165.18 0 0 1 22.27 8.86 4.34 4.34 0 0 1-1.56 8.19c-18.07 1.77-50.59 8.28-62.73 32a4.33 4.33 0 0 0 3.9 6.25h8.12a4.35 4.35 0 0 1 2.93 7.56c-13 11.76-35.31 36.29-36.8 66.62a4.36 4.36 0 0 0 6.34 4.06c7-3.65 18.81-8.91 29-9.39a4.35 4.35 0 0 1 3.69 7c-10.31 13.66-33.63 48.72-31.12 83.52a4.34 4.34 0 0 0 6 3.65l8.66-3.71a4.34 4.34 0 0 1 6 4.48c-1 8.26.62 22.81 15.08 43.3a4.34 4.34 0 0 0 5.49 1.37l5.8-2.9a4.34 4.34 0 0 1 6.08 2.56c4 12.46 18.65 45.61 66.14 66a4.35 4.35 0 0 0 6-3.27 4.33 4.33 0 0 1 8-1.55c7.53 12.05 23.63 29.91 55.42 36.12Z"></path>
  <circle cx="196.33" cy="271.14" r="40.67" fill="#fff"></circle>
  <circle cx="196.33" cy="271.14" r="22.77" fill="#27273d"></circle>
  <path fill="#fff" d="m256 356.8-74.57-25.08 6.39 26.18a3 3 0 0 0 4.82 1.55l3.66-3.15 7.31 16.45a3 3 0 0 0 5.07.61l4.32-5.56 9.23 12.2a3 3 0 0 0 4.13.59l6.45-4.77a6 6 0 0 1 8.26 1.14l12.61 16.34a3 3 0 0 0 4.7 0L271 376.92a6 6 0 0 1 8.26-1.14l6.45 4.77a3 3 0 0 0 4.13-.59l9.23-12.16 4.29 5.56a3 3 0 0 0 5.06-.61l7.31-16.45 3.66 3.15a3 3 0 0 0 4.83-1.55l6.38-26.18Z"></path>
  <path fill="#3e436d" d="M256 362.61a104.76 104.76 0 0 1-74.57-30.89 7.5 7.5 0 1 1 10.61-10.6 90.46 90.46 0 0 0 127.92 0 7.5 7.5 0 0 1 10.6 10.6A104.72 104.72 0 0 1 256 362.61Z"></path>
  <circle cx="355.24" cy="120.98" r="13.61" fill="#3e436d"></circle>
  <circle cx="335.19" cy="100.93" r="9.64" fill="#3e436d"></circle>
  <circle cx="196.33" cy="271.14" r="8" fill="#fff"></circle>
  <circle cx="309.61" cy="271.14" r="40.67" fill="#fff"></circle>
  <circle cx="309.61" cy="271.14" r="22.77" fill="#27273d"></circle>
  <circle cx="309.61" cy="271.14" r="8" fill="#fff"></circle>
  <ellipse cx="166.11" cy="160.64" fill="#27273d" rx="22.64" ry="10.78" transform="rotate(-56.71 166.093 160.627)"></ellipse>
  <ellipse cx="344.83" cy="160.64" fill="#27273d" rx="10.78" ry="22.64" transform="rotate(-33.29 344.884 160.645)"></ellipse>
  <path fill="#e88032" d="M165.11 167.51a75.17 75.17 0 0 0-27.47 17.15A65.5 65.5 0 0 0 121 212.47c-1.71 5.61-4.73 13.08-9.81 19.31-22.41 27.51-63.95-5.78-42.71-34.17 4.26-5.69 10.43-11.77 19.19-18.09 0 0 44.6-34.54 77.32-23.74a6.2 6.2 0 0 1 .12 11.73Z"></path>
  <path fill="#d16d2a" d="M165.12 167.5a75.3 75.3 0 0 0-27.48 17.16A65.5 65.5 0 0 0 121 212.47c-1.71 5.61-4.73 13.08-9.8 19.31-7.43 9.13-17 11.56-25.63 9.71 5.31-1.18 10.51-4.25 15-9.71 5.07-6.23 8.09-13.7 9.81-19.31A65.4 65.4 0 0 1 127 184.66a75.27 75.27 0 0 1 27.47-17.16 6.2 6.2 0 0 0-.12-11.72 41.23 41.23 0 0 0-8.61-1.82 46.9 46.9 0 0 1 19.26 1.82 6.2 6.2 0 0 1 .12 11.72Z"></path>
  <path fill="#e88032" d="M347.7 167.51a75.12 75.12 0 0 1 27.48 17.15 65.5 65.5 0 0 1 16.64 27.81c1.71 5.61 4.73 13.08 9.8 19.31 22.41 27.51 64-5.75 42.71-34.17-4.25-5.69-10.42-11.77-19.18-18.09 0 0-44.6-34.54-77.32-23.74a6.21 6.21 0 0 0-.13 11.73Z"></path>
  <path fill="#d16d2a" d="M427.26 241.49c-8.66 1.85-18.2-.58-25.63-9.71-5.08-6.23-8.1-13.7-9.81-19.31a65.5 65.5 0 0 0-16.64-27.81 75.36 75.36 0 0 0-27.47-17.16 6.2 6.2 0 0 1 .12-11.72A46.9 46.9 0 0 1 367.1 154a41.28 41.28 0 0 0-8.6 1.82 6.2 6.2 0 0 0-.13 11.72 75.3 75.3 0 0 1 27.48 17.16 65.5 65.5 0 0 1 16.64 27.81c1.71 5.61 4.73 13.08 9.8 19.31 4.45 5.42 9.65 8.49 14.97 9.67Z"></path>
</svg>
