<svg xmlns="http://www.w3.org/2000/svg" viewBox="0 0 512 512" id="monster">
  <circle cx="256" cy="256" r="256" fill="#f7bb38"></circle>
  <path fill="#32314b" d="M211.36 106.41L244.5 23.55c4.6-11.49 21.05-10.93 24.85.86l26.46 82zM142.06 156.35L121.9 69.42c-2.79-12.06 11-21 20.89-13.51l68.57 52.18z"></path>
  <path fill="#32314b" d="M99.21,218.07l-56.58-69c-7.85-9.57.58-23.71,12.74-21.36L140,144.1Z"></path>
  <path fill="#32314b" d="M82.79 265.76L21 231.1a10.49 10.49 0 0 1 3.24-19.47L91.52 199.3zM369.94 156.35L390.1 69.42c2.79-12.06-11-21-20.89-13.51l-68.57 52.18z"></path>
  <path fill="#32314b" d="M412.79,218.07l56.58-69c7.85-9.57-.58-23.71-12.74-21.36L372,144.1Z"></path>
  <path fill="#32314b" d="M429.21,265.76,491,231.1a10.49,10.49,0,0,0-3.24-19.47L420.48,199.3Z"></path>
  <path fill="#aa60fa" d="M459.58,290.09a203,203,0,0,1-406,0c0-112.11,90.89-203,203-203S459.58,178,459.58,290.09Z"></path>
  <path fill="#934cf5" d="M278.11,492.08q-10,1-20.33,1a203,203,0,0,1-203-203c0-112.11,90.89-203,203-203q10.29,0,20.33,1c-102.56,10.19-182.67,96.74-182.67,202a203.06,203.06,0,0,0,182.67,202Z"></path>
  <circle cx="256.58" cy="240.76" r="59.33" fill="#fff"></circle>
  <circle cx="256.58" cy="244.04" r="35.02" fill="#e82d86"></circle>
  <circle cx="256.26" cy="244.04" r="26.23" fill="#27273d"></circle>
  <circle cx="271.88" cy="225.99" r="8.18" fill="#fff"></circle>
  <circle cx="256.26" cy="244.04" r="9.87" fill="#fff"></circle>
  <path fill="#c99fff" d="M404.49,429.11a203,203,0,0,1-295.82,0c10.57-57.53,72.76-101.69,147.91-101.69S393.92,371.58,404.49,429.11Z"></path>
  <path fill="none" stroke="#27273d" stroke-linecap="round" stroke-miterlimit="10" stroke-width="25" d="M217.61,355.75a54.65,54.65,0,0,0,77.3,0"></path>
  <circle cx="166.45" cy="304.06" r="25" fill="#fab3a7"></circle>
  <circle cx="347.04" cy="304.06" r="25" fill="#fab3a7"></circle>
  <circle cx="97.58" cy="329.06" r="7.81" fill="#7f45db"></circle>
  <circle cx="123.58" cy="336.87" r="7.81" fill="#934cf5"></circle>
  <circle cx="91.52" cy="355.75" r="9.45" fill="#7f45db"></circle>
  <circle cx="121.54" cy="363.76" r="13.17" fill="#934cf5"></circle>
  <circle cx="415.3" cy="329.06" r="7.81" fill="#934cf5"></circle>
  <circle cx="389.3" cy="336.87" r="7.81" fill="#934cf5"></circle>
  <circle cx="421.36" cy="355.75" r="9.45" fill="#934cf5"></circle>
  <circle cx="391.34" cy="363.76" r="13.17" fill="#934cf5"></circle>
  <circle cx="387.79" cy="174.37" r="16.28" fill="#b276ff"></circle>
  <circle cx="363.81" cy="150.39" r="11.53" fill="#b276ff"></circle>
</svg>
