<svg xmlns="http://www.w3.org/2000/svg" viewBox="0 0 512 512" id="monster">
  <circle cx="256" cy="256" r="256" fill="#f55b4b"></circle>
  <path fill="#3586cb" d="M159 66.64a57.49 57.49 0 0 1-101.44 54.07C42.66 92.73 81.3 43 81.3 43s62.82-4.34 77.7 23.64Z"></path>
  <path fill="#366fca" d="M127.12 77.83A25.72 25.72 0 0 1 81.72 102c-6.67-12.5 10.62-34.75 10.62-34.75s28.11-1.94 34.78 10.58Z"></path>
  <path fill="#3586cb" d="M354.22 66.64a57.48 57.48 0 0 0 101.46 54.07c14.91-28-23.74-77.7-23.74-77.7s-62.82-4.35-77.72 23.63Z"></path>
  <path fill="#366fca" d="M386.12 77.83a25.72 25.72 0 0 0 45.4 24.17c6.67-12.52-10.62-34.77-10.62-34.77s-28.11-1.92-34.78 10.6Z"></path>
  <path fill="#41c0e3" d="M488.48 235.75a108.46 108.46 0 0 1-12.41 50.52L315.44 505.06a258.25 258.25 0 0 1-90.9 5 252.11 252.11 0 0 1-28.76-5.21c-.37-.08-.74-.17-1.1-.27L37.06 290.84a109 109 0 0 1 94.06-164.09h.54a109.58 109.58 0 0 1 15.47 1.16v-1.12a109 109 0 0 1 109-109h.46a108.94 108.94 0 0 1 108.54 109v.94a109.76 109.76 0 0 1 14.37-.94 109 109 0 0 1 109 109Z"></path>
  <path fill="#3eb3ce" d="m304 28.39-1.24-.16a106.17 106.17 0 0 0-13.76-.88 109 109 0 0 0-109 109v1.18q-2.68-.39-5.4-.66c-3.49-.34-7-.52-10.61-.52-2.38 0-4.75.08-7.09.24a106.57 106.57 0 0 0-12.21 1.46A109 109 0 0 0 70 300.44l1.23 1.67.77 1 152.54 206.97a252.11 252.11 0 0 1-28.76-5.21L38 290.84a109 109 0 0 1 93.7-164.08h.3a109 109 0 0 1 15.1 1c.31 0 .61.08.91.12v-1.17a109 109 0 0 1 108.55-109h.44a108.47 108.47 0 0 1 47 10.68Z"></path>
  <circle cx="254.82" cy="131.66" r="98" fill="#3eb3ce" transform="rotate(-45 254.82 131.67)"></circle>
  <circle cx="255.3" cy="131.67" r="80.83" fill="#fff"></circle>
  <circle cx="255.3" cy="136.14" r="47.71" fill="#3586cb"></circle>
  <circle cx="254.86" cy="136.14" r="35.74" fill="#27273d"></circle>
  <circle cx="276.14" cy="111.54" r="11.15" fill="#fff"></circle>
  <circle cx="254.86" cy="136.14" r="13.45" fill="#fff"></circle>
  <path fill="#fff" d="m223.12 352.5 26.41 70a5.62 5.62 0 0 0 10.52 0l26.07-70zm70.06-2.11 50.59 55.1a5.61 5.61 0 0 0 9.75-3.94l-1.87-74.64zm-76.03 0-50.58 55.1a5.61 5.61 0 0 1-9.75-3.94l1.87-74.64zm-58.8-25.72L111.82 348a3.91 3.91 0 0 1-5.37-5l19.71-48.06z"></path>
  <path fill="#fff" d="m126.59 295.08-51.23 9.1a3.9 3.9 0 0 1-3.73-6.29l32.55-40.48zm226.93 29.59L400.06 348a3.91 3.91 0 0 0 5.36-5l-19.7-48.06z"></path>
  <path fill="#fff" d="m385.28 295.08 51.24 9.1a3.91 3.91 0 0 0 3.73-6.29l-32.56-40.48Z"></path>
  <path fill="#3586cb" d="M255.3 361.63c-96.18 0-174.43-78.25-174.43-174.43a7.5 7.5 0 0 1 15 0c0 87.91 71.52 159.43 159.43 159.43s159.43-71.52 159.43-159.43a7.5 7.5 0 0 1 15 0c0 96.18-78.25 174.43-174.43 174.43Z"></path>
  <circle cx="172.49" cy="226.1" r="8.96" fill="#fcc8bc"></circle>
  <circle cx="159.05" cy="280.56" r="8.96" fill="#fcc8bc"></circle>
  <circle cx="145.39" cy="248.77" r="13.67" fill="#fcc8bc"></circle>
  <circle cx="186.16" cy="257.77" r="13.67" fill="#fcc8bc"></circle>
  <circle cx="340.75" cy="226.1" r="8.96" fill="#fcc8bc"></circle>
  <circle cx="354.19" cy="280.56" r="8.96" fill="#fcc8bc"></circle>
  <circle cx="367.86" cy="248.77" r="13.67" fill="#fcc8bc"></circle>
  <circle cx="327.08" cy="257.77" r="13.67" fill="#fcc8bc"></circle>
  <path fill="#db1b1b" d="M217.15 227.6c0 21.07 17.08 68.23 38.15 68.23s38.14-47.16 38.14-68.23a38.15 38.15 0 0 0-76.29 0Z"></path>
</svg>
