<svg xmlns="http://www.w3.org/2000/svg" viewBox="0 0 512 512" id="monster">
  <circle cx="256" cy="256" r="256" fill="#27273d"></circle>
  <path fill="#db1b1b" d="M236.23 87.83 278 16l50.51 51.66 44-15.73 16.61 56.67 37.15-7.79 19 116.7L435.1 233l21.32 58-33.67 26.87 15.71 39.8-52.75 17.51 31.43 28.06-35.92 24.69 41.53 13.47-25.82 36.48-75.18-29.74s23.36-42.65 24.58-55 10.2-99.9 10.2-99.9l-18-128Z"></path>
  <path fill="#b0d46c" d="M373.79 358.9A167.24 167.24 0 1 0 88.26 240.67S52.34 500.89 396.93 477.88c0 0-65.84-46.19-23.14-118.98Z"></path>
  <path fill="#a3c163" d="M379.27 478.83c-325.68 13.07-291-238.15-291-238.15A167.25 167.25 0 0 1 255.51 73.43a169.63 169.63 0 0 1 23.57 1.65 167.29 167.29 0 0 0-143.68 165.6s-31.22 226.21 243.87 238.15Z"></path>
  <circle cx="255.51" cy="245.42" r="112.24" fill="#fff"></circle>
  <circle cx="255.51" cy="251.63" r="66.24" fill="#3586cb"></circle>
  <circle cx="254.9" cy="251.63" r="49.63" fill="#27273d"></circle>
  <circle cx="284.45" cy="217.48" r="15.48" fill="#fff"></circle>
  <circle cx="254.9" cy="251.63" r="18.67" fill="#fff"></circle>
  <path fill="#a65c3b" d="M389.72 132.22c26.57-17.15 63.19-51 76.18-111.77a5.65 5.65 0 0 1 11.09.22c5.83 34 7.25 95.75-35.45 163.08-15.63 24.63-52.15 22.8-65.15-3.31a37.5 37.5 0 0 1 13.33-48.22Z"></path>
  <path fill="#9e4830" d="M393.33 163.82a37.43 37.43 0 0 0 27.09 35.92 37.44 37.44 0 0 1-30.53-67.52c26.55-17.15 63.18-51 76.16-111.77 1.32-6.09 10.05-5.92 11.09.22a203.7 203.7 0 0 1 2.69 24.24 172.06 172.06 0 0 1-69.25 87.31 37.66 37.66 0 0 0-17.25 31.6Z"></path>
  <path fill="#a65c3b" d="M123.69 132.22c-26.56-17.15-63.18-51-76.17-111.77a5.65 5.65 0 0 0-11.09.22c-5.84 34-7.25 95.75 35.45 163.08 15.62 24.63 52.12 22.8 65.12-3.31a37.49 37.49 0 0 0-13.31-48.22Z"></path>
  <path fill="#9e4830" d="M113.61 199.81a37.35 37.35 0 0 1-41.73-16.06C29.17 116.42 30.6 54.69 36.42 20.67a5.65 5.65 0 0 1 11.09-.22A192.82 192.82 0 0 0 54 43.64c-2.09 35.41 3.72 86 38.06 140.11a37 37 0 0 0 21.55 16.06Z"></path>
  <circle cx="341.93" cy="363.39" r="20.19" fill="#a3c163"></circle>
  <circle cx="241.48" cy="389.77" r="20.19" fill="#a3c163"></circle>
  <circle cx="293.76" cy="418.96" r="15.44" fill="#a3c163"></circle>
  <circle cx="293.76" cy="379.68" r="10.09" fill="#a3c163"></circle>
  <circle cx="327.43" cy="448.15" r="10.09" fill="#a3c163"></circle>
  <circle cx="331.84" cy="408.86" r="10.09" fill="#a3c163"></circle>
</svg>
